<!--?xml version="1.0" standalone="no"?-->
              <svg id="sw-js-blob-svg" viewBox="0 0 100 100" xmlns="http://www.w3.org/2000/svg" version="1.1">
                    <defs> 
                        <linearGradient id="sw-gradient" x1="0" x2="1" y1="1" y2="0">
                            <stop id="stop1" stop-color="rgba(229.455, 236.961, 241.695, 1)" offset="0%"></stop>
                            <stop id="stop2" stop-color="rgba(229.455, 236.961, 241.695, 1)" offset="100%"></stop>
                        </linearGradient>
                    </defs>
                <path fill="url(#sw-gradient)" d="M28.4,-31.6C36.5,-27,42.7,-17.8,40.8,-9.9C39,-2,29.1,4.6,23,11.7C17,18.8,14.7,26.4,9.4,30.3C4.1,34.2,-4.2,34.3,-11.9,31.9C-19.6,29.5,-26.6,24.5,-31.5,17.5C-36.5,10.5,-39.3,1.5,-36.7,-5.3C-34.1,-12.2,-26.2,-17,-19.2,-21.8C-12.2,-26.5,-6.1,-31.3,2,-33.7C10.1,-36.1,20.3,-36.2,28.4,-31.6Z" width="100%" height="100%" transform="translate(50 50)" stroke-width="0" style="transition: all 0.3s ease 0s;"></path>
              </svg>